Patient4_TMGait_0pt7_02_right_20_EMG.mot
version=1
nRows=29
nColumns=33
inDegrees=no
endheader
time	1LAddLong	2LGlutMax	3LGlutMed	4LIliopsoas	5LSemiMemb	6LBicFemLong	7LRecFem	8LVastMed	9LVastLat	10LGasMed	11LTibAnt	12lTibPost	13LPeroneusLong	14LSol	15LExtDigLong	16LFlexDigLong	17RAddLong	18RGlutMax	19RGlutMed	20RIliopsoas	21RSemiMemb	22RBicFemLong	23RRecFem	24RVastMed	25RVastLat	26RGasMed	27RTibAnt	28RTibPost	29RPeroneusLong	30RSol	31RExtDigLong	32RFlexDigLong
23.313	0.006409	-0.15442	-0.07019	-0.022736	0.048828	0.023956	0.042725	-0.002747	0.001526	-0.12772	0.023346	-0.005493	0.068512	0.028687	-0.22858	0.003357	-0.00946	-0.10208	-0.072021	-0.018616	-0.095825	0.066376	0.002747	0.005188	-0.007782	-0.012054	0.094147	-0.008392	-0.18082	-0.028839	0.002594	-0.002594
23.314	0.000153	-0.15488	-0.15854	-0.003967	0.030365	-0.069427	0.056	0.003052	-0.004883	-0.11688	-0.019226	0.001373	-0.02243	0.080261	-0.24796	0.018921	-0.007935	-0.12085	0.38025	-0.063782	0.05127	0.12085	-0.016632	0.014038	-0.00412	-0.011902	0.08667	-0.005646	-0.14877	-0.035248	-0.000153	-0.006409
23.315	0.001373	-0.159	-0.15747	0.002594	-0.003967	-0.12436	0.092773	-0.001526	0.003815	-0.1535	-0.018463	-0.003357	-0.17334	0.10223	-0.19455	0.013428	-0.013733	-0.094452	0.56061	-0.112	0.26062	0.31204	-0.0177	0.019989	0.002747	-0.015411	0.057831	-0.011444	-0.005951	-0.056458	0.001221	-0.005035
23.316	0.006409	-0.15152	-0.10239	0.014954	-0.014191	-0.2063	0.10925	-0.010071	0.012054	-0.1918	-0.017395	-0.01236	-0.16129	0.12512	-0.12131	0.018463	-0.005951	-0.12344	0.24078	-0.042877	0.099487	0.18967	-0.016174	0.007782	-0.006561	-0.020905	0.024872	-0.010529	0.034637	-0.038757	-0.003662	-0.000305
23.317	0.019531	-0.14053	-0.11917	0.012512	-0.028076	-0.17151	0.11078	-0.007782	0.0177	-0.21698	-0.019226	0.000458	-0.15488	0.13931	-0.084839	0.016937	0.007324	-0.13641	0.059967	-0.012207	-0.11902	-0.009918	0.045624	-0.006409	-0.005798	-0.020142	0.069122	-0.014801	-0.008698	-0.079041	0.001221	-0.010071
23.318	0.024109	-0.12039	0.23895	0.009003	0.028381	-0.086365	0.11643	-0.039978	-0.00351	-0.19592	-0.018005	0.001068	0.11108	0.06485	-0.085602	-0.000763	0.046997	-0.07309	0.42572	-0.022583	-0.22888	-0.070953	0.041656	-0.048065	-0.019989	-0.016785	0.057526	-0.008698	-0.025177	-0.066681	-0.001526	-0.005646
23.319	0.018921	-0.12421	0.17761	0.019073	0.10605	-0.035248	0.083466	-0.001221	-0.002289	-0.13412	0.005035	-0.003662	0.035095	-0.035248	0.015411	-0.004425	0.062714	-0.088196	0.62118	-0.013733	-0.31387	-0.088654	0.046082	-0.075836	-0.014496	-0.016327	0.02533	-0.007019	-0.10086	-0.06134	-0.000458	-0.009766
23.32	0.018768	-0.18921	0.0737	0.010529	0.079956	0.030975	0.10559	0.014343	-0.029907	-0.067749	0.012054	-0.000763	-0.0914	-0.103	0.071106	0.011749	0.047455	-0.15427	0.49835	-0.013428	-0.089417	0.061951	0.018311	-0.079803	-0.013428	-0.020142	0.032043	-0.007019	-0.11932	-0.075378	-0.00351	-0.002441
23.321	0.00946	-0.1973	0.15625	0.005188	0.038757	0.073242	0.073395	0.05249	-0.040283	-0.022125	0.000763	-0.004883	-0.036316	0.000763	0.061035	0.012207	0.003357	-0.13931	-0.075836	-0.034637	0.15259	0.19302	-0.001373	-0.019989	-0.010376	-0.011292	0.083771	-0.012207	-0.2066	-0.062103	-0.001678	-0.004578
23.322	0.014038	-0.17929	0.078125	0.023041	0.013123	0.12405	0.032349	0.029449	-0.0177	0.072327	0.01709	-0.007782	0.103	0.011749	0.026245	0.003357	-0.008087	-0.12329	-0.64545	-0.047913	0.15854	0.1416	-0.011902	-0.012512	-0.005341	-0.011292	0.20157	-0.009766	-0.085754	-0.071106	0.001221	-0.00412
23.323	0.010071	-0.18387	0.046234	-0.001526	0.017548	0.086517	0.03479	0.001373	0.019836	0.16403	-0.003204	-0.007324	0.097961	-0.045319	0.039825	0.009003	-0.028076	-0.063629	-0.66727	-0.060883	0.14572	0.05188	0.014191	-0.041656	-0.000763	-0.012665	0.17853	-0.008087	0.094757	-0.056763	-0.000305	-0.007019
23.324	0.012817	-0.1683	0.04303	0	0.014648	0.046692	0.010529	-0.000458	0.033417	0.29205	-0.002899	-0.003052	0.13947	-0.062866	0.045624	-0.005035	-0.025482	-0.032959	-0.28686	-0.061493	0.12482	0.026855	0.010529	0.003204	-0.007935	-0.00824	0.072784	-0.00351	-0.044403	-0.05127	-0.00061	-0.003662
23.325	0.006256	-0.15579	-0.015869	-0.008698	0.006866	0.045776	0.043793	0.007019	0.014496	0.37552	0.019379	0.000916	0.051575	-0.046539	0.045471	0.005341	-0.018921	-0.030212	0.45197	-0.055389	0.093079	-0.014343	0.006104	0.002441	0.024109	-0.001373	0.016327	-0.007782	-0.08728	-0.038452	-0.003967	-0.00473
23.326	0.010681	-0.14053	-0.005493	-0.018158	0.011292	0.049591	0.059814	0.002594	0.004883	0.31281	-0.036774	0.013275	-0.013428	0.01236	0.017242	-0.006866	0.017395	-0.052338	0.15274	0.011749	0.023499	-0.08606	0.036774	-0.054016	0.002899	-0.010986	0.031586	-0.008392	0.18921	-0.051117	-0.000458	-0.002747
23.327	0.015869	-0.15549	-0.048828	-0.016174	0.014496	0.019073	0.095062	0.001373	0.025177	0.23086	0.002899	0.005188	-0.18951	0.011597	0.009613	-0.015106	0.077362	-0.045929	0.10025	0.10422	-0.030212	-0.12787	0.02594	-0.11368	-0.001678	-0.01358	-0.051727	-0.009918	0.14969	-0.074158	-0.001678	-0.001373
23.328	0.002136	-0.12924	-0.014648	-0.001984	0.023956	0.016785	0.12344	-0.00061	-0.041199	0.014648	0.043182	0.00473	-0.2655	0.12741	0.015106	0.001221	0.10407	-0.02533	0.19867	0.10574	-0.14084	-0.12451	-0.010376	-0.159	0	-0.006561	-0.087585	-0.004578	0.099487	-0.075531	-0.005798	0.00061
23.329	-0.000916	-0.14816	0.023499	0.027161	0.021973	0.013733	0.10757	0.007782	-0.06424	-0.097198	0.026703	0.00473	-0.007629	0.16754	0.039673	0.009918	0.074768	-0.029449	-0.48966	0.075989	-0.3624	-0.024109	0.001373	-0.088806	0.020294	-0.007629	-0.032806	-0.005798	0.11459	-0.12039	-0.001526	-0.015717
23.33	-0.001068	-0.16403	-0.014801	0.018616	0.001373	0.032043	-0.005188	0.011444	0.041199	-0.16846	0.043488	0.001373	0.35507	0.10605	0.059204	0.023499	-0.020905	-0.00473	-0.54657	0.007324	-0.3067	0.18158	-0.083466	0.015717	0.020294	-0.008545	0.040894	-0.005188	0.07309	-0.092621	-0.003052	-0.030823
23.331	0.013885	-0.16617	0.058136	0.00412	0.015106	-0.000305	0.047302	0.004578	0.13275	-0.12863	0.041046	-0.005798	0.027466	0.054016	0.007935	0.011749	-0.06134	-0.009308	-0.29755	0.002289	0.027466	0.13306	-0.074158	0.10895	0.023499	-0.019836	0.11292	-0.009766	-0.001678	-0.013885	-0.002441	-0.036163
23.332	0.01358	-0.16296	0.028381	-0.007019	0.009155	-0.010986	0.087891	-0.00473	0.091705	-0.084839	0.020447	-0.004578	-0.033112	0.010986	-0.015106	-0.000458	-0.029297	-0.02655	-0.16281	-0.011597	0.25345	0.12039	-0.0177	0.096741	0.00885	-0.01236	0.14999	-0.009003	-0.063629	-0.020447	0.003662	-0.031586
23.333	0.001984	-0.1564	-0.034027	0.000916	-0.00824	-0.022278	0.071259	-0.002441	0.067902	-0.06958	0.033264	-0.000458	0.09201	-0.071716	-0.009613	0.016174	0.011749	-0.088959	-0.26459	-0.052338	0.23514	0.13687	-0.014801	0.084381	0.000305	-0.008698	0.12299	-0.007629	-0.078888	-0.028687	-0.003052	-0.033875
23.334	0.002594	-0.14755	-0.007019	-0.000916	0.005035	-0.051727	0.056152	0.001526	0.023956	-0.058899	0.1149	0.000305	-0.12375	0.012512	0.057678	0.014801	0.048218	-0.094757	0.097961	-0.11078	0.042877	0.031586	0.021362	0.024567	-0.021515	-0.011597	0.098419	-0.009308	-0.080109	-0.039063	0.002441	-0.027466
23.335	0.007172	-0.09964	-0.039063	-0.001831	0.026855	-0.049744	0.080109	0.005646	0.006866	-0.014191	0.12878	-0.011292	0.09552	0.046997	0.051575	0.012054	0.07782	-0.050812	0.08255	-0.19623	-0.097656	-0.039215	0.019684	-0.034943	-0.002747	-0.008545	0.071411	-0.007629	-0.019073	-0.052948	-0.00061	-0.021057
23.336	0.006866	-0.09964	-0.046844	-0.005341	0.036926	-0.037842	0.1001	0.006409	0.050201	-0.068054	-0.13229	-0.0177	0.18082	0.1207	-0.036774	0.015564	0.10101	-0.055237	0.14496	-0.21652	-0.18646	0.098877	-0.022583	-0.088348	-0.005493	-0.016785	0.087433	-0.006256	0.011139	-0.078125	-0.002441	-0.019989
23.337	0.010223	-0.086212	-0.011749	0.003967	0.037079	-0.000458	0.091553	-0.00061	0.097198	-0.091095	-0.46585	-0.015564	0.23438	0.097656	0.024261	0.005341	0.080872	-0.010223	-0.095062	-0.001984	-0.28564	0.16327	-0.039673	-0.05661	0.018463	-0.015869	0.084839	-0.007477	-0.00061	-0.079041	-0.002441	-0.010529
23.338	0.006561	-0.061798	0.008698	-0.010071	0.005646	0.005951	0.10895	-0.017242	0.089264	-0.085449	-0.19379	-0.016174	0.15595	0.024719	0.097504	-0.000916	-0.012817	0.022125	-0.1297	0.23758	-0.17212	0.19165	-0.063934	-0.007019	0.032043	-0.013123	0.048523	-0.011597	0.001984	-0.10635	-0.000305	-0.007935
23.339	0.002899	-0.075836	0.005646	-0.002747	0.01709	-0.010681	0.1355	-0.013885	0.071716	-0.080872	-0.02594	-0.022888	0.13779	0.084534	-0.038452	-0.003815	-0.025635	-0.022125	-0.075684	0.23361	0.17746	0.10376	-0.034485	0.076752	0.032349	-0.014954	-0.045471	-0.00824	0.004425	-0.0737	-0.002441	-0.01709
23.34	0.009003	-0.08728	0.01236	-0.00824	0.007935	-0.02594	0.099945	-0.007629	0.053711	-0.049591	0.1445	-0.014648	0.1535	0.085144	-0.1181	-0.011902	-0.025787	-0.013885	-0.30701	0.098877	0.16449	0.00824	-0.048065	0.060577	0.023651	-0.010376	0.038452	-0.007019	0.025635	-0.092621	0	-0.003357
23.341	0.006714	-0.082855	0.014801	-0.011444	0.019379	0.009613	0.10696	-0.009003	0.032196	-0.010986	0.08728	-0.015717	0.74646	0.024872	-0.037384	-0.005341	-0.065613	0.00061	-0.17624	0.002441	0.096588	-0.023346	-0.055084	0.070343	0.029449	-0.014801	0.019989	-0.005646	0.059357	-0.077362	-0.003967	-0.013123
